<?xml version="1.0" encoding="utf-8"?>
<!-- Generator: Adobe Illustrator 25.4.1, SVG Export Plug-In . SVG Version: 6.00 Build 0)  -->
<svg version="1.1" id="Layer_1" xmlns="http://www.w3.org/2000/svg" xmlns:xlink="http://www.w3.org/1999/xlink" x="0px" y="0px"
	 viewBox="85.01902 619.23407 214.43004 250" style="enable-background:new 85.01902 619.23407 214.43004 250;"
	 xml:space="preserve">
<style type="text/css">
	.st0{fill:#E0EFFE;}
	.st1{fill:#BED5EB;}
	.st2{fill:#84AFD9;}
	.st3{fill:#FFFFFF;}
	.st4{fill:#3E466B;}
	.st5{fill:#2D344F;}
	.st6{fill:#E6A1B5;}
	.st7{fill:#631538;}
	.st8{fill:#FFB79B;}
	.st9{fill:#E66897;}
	.st10{fill:#9E1A5D;}
	.st11{fill:#851F43;}
	.st12{fill:#FF9D80;}
	.st13{fill:#AE295A;}
	.st14{fill:#FFB299;}
	.st15{fill:#9A2651;}
	.st16{fill:#DE674F;}
	.st17{fill:#E1F2F1;}
	.st18{fill:#66C7BC;}
	.st19{fill:#EBFFFD;}
	.st20{fill:#1F2C34;}
	.st21{fill:#E04C48;}
	.st22{fill:#A2C2BE;}
	.st23{fill:#273D6F;}
	.st24{fill:#D5D5D5;}
	.st25{fill:#ACA9AA;}
	.st26{fill:#151515;}
	.st27{fill:#71EAD9;}
	.st28{fill:#1B2A4A;}
	.st29{fill:#325094;}
	.st30{fill:#E1EDEC;}
	.st31{fill:#313A49;}
	.st32{fill:#EAEAEA;}
	.st33{fill:#C1BDBE;}
	.st34{fill:none;stroke:#000000;stroke-miterlimit:10;}
	.st35{fill:none;stroke:#000000;stroke-linejoin:round;stroke-miterlimit:10;}
	.st36{fill:#606060;stroke:#000000;stroke-linejoin:round;stroke-miterlimit:10;}
	.st37{fill:none;stroke:#000000;stroke-width:2;stroke-miterlimit:10;}
	.st38{fill:none;stroke:#606060;stroke-width:1.2;stroke-miterlimit:10;}
	.st39{fill:#606060;}
	.st40{fill:none;stroke:#000000;stroke-width:4;stroke-linecap:round;stroke-miterlimit:10;}
	.st41{fill:#B0C9E1;}
	.st42{fill:#F5FFFE;}
	.st43{fill:#81A6A1;}
	.st44{fill:none;stroke:#000000;stroke-width:1.1;stroke-miterlimit:10;}
	.st45{fill:#FEBBA6;}
	.st46{fill:url(#SVGID_1_);}
	.st47{fill:none;stroke:#000000;stroke-width:3;stroke-linecap:round;stroke-miterlimit:10;}
	.st48{fill:none;stroke:#000000;stroke-width:3;stroke-miterlimit:10;}
	.st49{fill:none;stroke:#000000;stroke-width:3;stroke-linecap:round;stroke-linejoin:round;stroke-miterlimit:10;}
	.st50{fill:#412500;}
	.st51{fill:#966836;}
	.st52{fill:none;}
</style>
<path id="path-01_00000169539760517618880220000001587491347254395568_" d="M190.17604,619.23407
	c-3.93564,0.00012-7.95262,0.23627-12.03685,0.72266c-58.4031,6.95514-93.44963,73.60236-93.11784,139.08417
	c0.31973,63.10614,51.47541,110.19318,107.87931,110.19318c2.74739,0,5.50835-0.11176,8.27548-0.33881
	c43.02856-3.53107,77.11014-35.72601,91.36292-77.51562C318.16022,716.2572,269.98102,619.23029,190.17604,619.23407z
	 M284.74048,788.71985c-6.71683,19.69403-17.96072,36.8324-32.51627,49.56226c-14.98805,13.10815-32.87321,20.85431-51.72197,22.401
	c-2.51668,0.2066-5.07422,0.31134-7.60158,0.31134c-25.29514,0-50.50919-10.58862-69.17727-29.05078
	c-13.98959-13.83521-24.90289-31.29114-28.97606-52.45117c-1.9861-10.31775,5.15203-20.49011,15.58538-21.73328
	c6.72606-0.80145,12.82758-4.94696,15.4648-13.02454c6.52989-17.28259-5.31461-35.12152-0.28841-52.52777
	c2.63674-9.88757,10.89701-18.86871,19.30135-22.41174c12.15353-5.56177,27.29384-0.67981,34.09164,8.36328
	c8.83698,11.02045,5.14978,24.34802,0.28828,36.70746c-6.90065,16.10858-19.11591,40.66278-3.06924,54.42297
	c-3.72844-0.32965-7.27142,1.21527-10.29956,3.29584c-6.22096,4.24341-10.81453,10.77325-13.12163,17.88
	c-2.71909,8.38385-1.1123,17.38562-3.52249,25.7901c-0.43782,1.60571-1.2998,1.08563-0.77321-0.90906
	c-1.34131-0.46008-4.02733-1.63257-4.85031-2.51044c-1.40073-1.50372-1.83334-3.33704-2.49254-5.21155
	c-0.61795-1.68909-1.73026-3.50183-2.98677-4.79962c-0.47386-0.47369-0.96822-0.72089-1.66852-0.78278
	c-0.39139-0.02057-2.08054,0.18549-2.12177,1.33899c1.31837,1.15356,2.30708,2.67786,2.65724,4.367
	c0.18544,0.927-0.02049,0.72095-0.51498-0.14417c-0.22656-0.39142-0.49435-0.76221-0.74153-1.13293
	c-0.7003-1.00934-1.50371-1.91571-2.53366-2.59552c-0.22656-0.16486-0.47374-0.32953-0.78278-0.37079
	c-0.16483-0.02063-0.35014,0.02063-0.51497,0.10297c-0.20595,0.08252-0.39139,0.20612-0.5356,0.35016
	c-0.14421,0.14423-0.5356,0.7417-0.63857,0.90637c2.26598,0.70044,4.44948,3.00751,4.26402,4.40826
	c-0.22656,0.26776-0.18544,0.45325-0.45311,0.1236c-0.35028-0.4325-0.78279-0.94751-1.11244-1.40076
	c-0.78278-1.07117-2.69847-2.22473-4.34637-1.66852c-0.24719,0.08234-1.09182,0.76215-1.31838,1.02997
	c1.3801,0.24719,2.24535,0.72089,3.99624,1.97754c0.55621,0.55609,0.37076,0.98871-0.32953,0.57672
	c-0.76216-0.24719-2.24536-1.17413-2.61613-1.17413c-1.44196-0.30896-1.70976,0.41199-1.81273,0.41199
	c0.72092,0.43262,2.45129,1.23602,2.7191,2.10114c0.22656,0.76215-0.32953,0.61798-0.86513,0.1853
	c-0.55621-0.45312-2.84269-1.73022-2.20412,0.10315c0.47374,1.38007,1.79211,2.45129,2.84269,3.37811
	c2.55428,2.24536,5.12915,4.4906,7.49799,6.92139c2.0188,2.10107,3.89326,4.367,5.47943,6.81836
	c1.56555,2.43066,3.04863,4.59351,6.26208,4.46997c2.26598-0.10303,6.01503-1.50372,6.50938-4.01691
	c0.2883-1.50366,0.22656-2.96625,0.78278-4.42883c0.47374-1.27716,1.13293-2.4718,1.93633-3.58423
	c1.66852-2.30707,3.74893-4.20215,5.68526-6.24146c0.12358-0.20605,0.2473-0.35016,0.43262-0.45325
	c1.87459-2.03931,3.41953-4.34637,4.61418-6.85944c1.21541-2.55438,2.03929-5.29395,2.45131-8.09552
	c0.412-2.78088,0.22656-5.62354-0.02063-8.42499c-0.12358-1.33899,1.97757-1.56555,2.26599-0.30902
	c1.73026,7.23029-0.41202,15.59351-4.4906,21.69092c-0.84464,1.25653-1.81273,2.3894-2.80157,3.48126v0.08234
	c-0.96809,5.23224,1.4832,10.75281,4.3259,15.03729c3.06924,4.65546,7.47748,9.24915,12.77147,11.30902
	c11.28827,4.38751,23.05042-3.19293,31.61958-9.9494c9.10478-7.18903,17.1591-15.94366,23.91554-25.35748
	c6.59175-9.16663,12.17415-19.38385,14.33704-30.54852c1.09169-5.54114,1.2359-11.3089,0.18532-16.87067
	c-0.51497-2.69849-1.27713-5.23212-2.49242-7.68341c-1.05057-2.1424-2.14238-4.38763-1.66852-6.81836
	c0.37077-1.38019,1.17416-2.47186,2.34833-3.27527c2.38945-1.62732,5.54105-1.93634,8.11594-3.2547
	c2.43082-1.21527,4.73788-2.73962,6.75656-4.57294c3.60486-3.27533,6.20035-7.47754,7.49811-12.17401
	c2.63663-9.49634,0.10297-19.8576-5.10867-28.03552c-5.56165-8.77527-14.41937-15.14032-24.80127-16.62347
	c-13.16287-1.89508-26.9848,2.96625-34.97726,13.84265c-1.99818,2.73969-3.62546,5.7677-4.79962,8.93994
	c-1.44197,3.91388-2.20413,8.11603-4.28465,11.76215c-0.86513,1.50366-1.95682,2.96625-3.29581,4.07855
	c-0.65919,0.53564-1.35962,1.02997-2.10115,1.42139c-0.86513,0.43262-1.93633,0.59741-2.73959,1.11243
	c-1.44197,0.94745-1.27727,3.15161-0.45325,4.44934c1.05057,1.70978,3.00752,2.67786,4.71715,3.58423
	c0.28842,0.16479,0.35028,0.41199,0.28842,0.63855c0.16483,1.44196-0.28842,3.04877-0.32953,4.51123
	c-0.06186,1.54492,0,3.08984,0.30891,4.6142c0.5356,2.76031,1.60678,5.72662,3.60484,7.7865
	c1.66852,1.75085,3.87263,2.69849,6.17973,3.33704c1.19478,0.32965,2.43068,0.57684,3.6667,0.78278
	c0.88574,0.14423,2.16289,0.26782,2.96628,0.80341c0.37077,0.10297,0.67981,0.47375,0.67981,0.88574
	c-0.02063,0.63855-0.08249,1.25653-0.22668,1.87445c-0.08235,0.28845-0.20595,0.55621-0.30891,0.84467
	c0.22656,0.20593,0.49435,0.39136,0.72092,0.63855c1.62729,1.79211,2.80145,4.22278,3.06924,6.63287
	c0.20607,1.95691-0.57671,4.57306-2.51303,5.35583c-0.04124,0.10297-0.06186,0.1853-0.10297,0.26782
	c0.72092-0.49451,1.50369-0.927,2.32758-1.27716c2.03943-0.90637,4.2023-1.42133,5.95319-2.90454
	c2.05991-1.75085,3.3989-4.18158,5.41757-5.97382c1.68915-1.50366,3.89326-2.57489,6.22098-2.55426
	c0.49435,0,0.47374,0.72107,0,0.76215c-2.65738,0.26782-4.42886,2.45129-5.93256,4.47009
	c-1.44197,1.89514-2.7191,3.93439-4.57307,5.45874c-1.60666,1.31836-3.4194,2.0188-5.31448,2.80157
	c-1.77162,0.72089-3.56374,1.56543-4.67604,3.17218c-0.92699,1.33887-3.11049,0.0824-2.1835-1.2771
	c0.32953-0.49438,0.70042-0.927,1.11232-1.33899c-0.61795-0.70032-1.29776-1.3595-1.8951-2.01868
	c-0.96809-1.09186-2.03929-2.08057-3.21346-2.94568c-2.22473-1.66852-4.61418-3.06927-6.55051-5.10864
	c-3.41951-3.5636-5.25275-8.36328-4.65541-13.32758c0.02061-0.16486,0.08235-0.32953,0.14421-0.47375
	c-0.84451-1.58618-1.40073-3.33704-1.7715-5.08801c-3.83153,0.3501-7.27155,1.2771-10.05238,4.18164
	c-1.44196,1.50372-2.82207,3.5636-2.61612,5.74713c0.22656,2.08051,2.26598,3.62543,3.41953,5.25275
	c7.60107,10.79388,5.49992,28.34442,18.37437,35.28625c7.49811,4.05811,16.54102,2.9046,24.16272-0.16479
	c3.95499-1.56543,7.70404-3.66656,11.20592-6.05615c1.75101-1.19464,3.44002-2.49243,5.06743-3.8725
	c1.50369-1.27728,2.73959-2.76038,4.61418-3.46075c0.51498-0.20599,1.1123,0.41199,0.92699,0.92694
	c-0.87869,2.32965-3.17645,3.90918-5.08321,5.42242c-1.50735,1.19623-3.02507,2.37787-4.62975,3.44
	c-4.83116,3.19781-10.18658,5.95532-15.83,7.53455c-8.40446,2.34833-17.88002,1.68915-24.84253-4.03748
	c-0.30904-0.26782-0.57671-0.55609-0.86513-0.84454c1.42136,2.82208,2.65724,5.7265,3.72844,8.63104
	c0.04124,0.06177,0.06174,0.1236,0.08235,0.18536c0.06186,0.0412,0.14421,0.08246,0.22656,0.14417
	c2.34833,2.0188,4.34651,4.42889,5.82959,7.14795c0.76215,1.38013,1.40071,2.80145,1.87459,4.30518
	c0.24718,0.72107,0.45311,1.46259,0.59732,2.2041c0.14421,0.74158-0.04123,1.48322,0.04124,2.24536
	c0.04111,0.57672-0.86525,0.65918-1.00946,0.1236c-0.20595-0.74164-0.7003-1.33899-0.94748-2.10114
	c-0.20607-0.67981-0.45325-1.3595-0.72105-2.01868c-0.53546-1.27716-1.15353-2.53375-1.85384-3.72845
	c-0.72105-1.23602-1.54494-2.38953-2.47192-3.48126c0.72092,2.49243,1.33899,5.00562,1.7715,7.55988
	c0.74165,4.24341,0.9476,8.48682,1.00934,12.79205c0,0.70032-1.05046,0.67969-1.07108,0
	c-0.35028-9.146-2.7191-18.60101-6.32394-26.98486c-3.02814-7.04486-7.10672-14.29584-12.70961-19.61029
	c-0.84464-0.78278-1.75101-1.52448-2.69849-2.2041c0,0-2.34833-1.95697-5.39696-2.38959
	c4.9231-0.06964,8.76909,2.03412,13.6366,7.00372c-1.05057-2.71906-1.85396-5.54114-2.63673-8.28088
	c-0.43263-1.48303-0.86513-2.98688-1.31837-4.4906c-0.08235,0.16486-0.1647,0.30908-0.24718,0.47375
	c-0.39139,0.70044-0.84451,1.38025-1.21529,2.10114c-0.32965,0.57684-0.59746,1.15356-0.88574,1.75092
	c-0.26781-1.07111-1.09181-2.01868-2.08054-2.80145c-1.58617-1.25653-3.04875-2.2865-4.30527-3.76965
	c-0.28842-0.35016-0.57671-0.72095-0.84451-1.1123c-5.02618-7.53925-2.65736-16.60291,0.14421-24.49243
	c2.90442-8.17773,6.88004-15.92303,9.76396-24.10083c2.616-7.45703,4.28453-15.367,3.08987-23.25647
	c-5.66476-29.88934-43.38173-37.46979-62.70372-15.16095c-6.13862,6.83893-10.19658,15.6759-10.83515,24.90442
	c-0.70042,10.36127,2.90442,20.55786,3.58423,30.85742c0.8034,8.0954-1.339,18.90997-8.61041,21.81439
	c-0.94761,0.37091-1.93633,0.63855-2.94566,0.82397c-0.02061,0-0.08247,0-0.1442,0.02063l-0.18243,0.02032
	c-8.63671,0.96204-15.90155-6.39276-14.86179-15.02051c2.87403-23.84802,10.53072-46.82111,22.00648-65.24207
	c11.14871-17.89624,31.05306-40.01691,62.56528-43.76959c3.70329-0.44104,7.42531-0.66473,11.06284-0.66486h0.00415
	c29.71106,0,56.71056,14.86621,76.02473,41.86035C290.58099,703.40179,297.85645,750.26349,284.74048,788.71985z
	 M232.04779,746.58862c-0.02063-0.32953,0.3089-0.78278,0.63857-0.82404c1.42134-0.20593,2.616,1.00946,3.91376,1.44196
	c1.19478,0.41205,2.47191,0.57684,3.70793,0.26782c1.31825-0.3089,2.4718-1.13293,3.543-1.91571
	c0.9476-0.67981,1.83334-1.48309,2.53365-2.3894c1.23602-1.66858,1.81273-3.83154,0.92699-5.78839
	c-2.45131-5.39703-10.01114,0.59735-12.44182,3.02802c-0.49437,0.47375-1.15355-0.24719-0.74155-0.74152
	c2.26585-2.76031,5.25275-5.85022,8.93996-6.5094c3.02812-0.53546,5.6235,1.13306,6.61235,3.99622
	c0.98872,2.80157,0.04112,5.72662-1.73038,7.97186c-1.89508,2.38959-4.92322,4.6554-7.99246,5.00568
	c-1.48308,0.18536-3.0074-0.0412-4.38762-0.57684c-0.51498-0.18542-1.13293-0.43262-1.70964-0.74152
	c-1.13306,0.41199-2.43068,0.59735-3.60484,0.82391c-1.23602,0.24719-2.49254,0.47388-3.74905,0.55621
	c-1.21541,0.10297-2.47192,0.08234-3.68733-0.06177c-1.05045-0.10309-2.80144-0.22668-3.54298-1.07117
	c-0.32953-0.37079-0.16483-0.86511,0.26781-1.02997c0.5356-0.18542,1.15353-0.06183,1.70976-0.02063
	c0.59732,0.04126,1.21527,0.06189,1.83322,0.06189c1.19478,0,2.36894-0.12372,3.54311-0.28845
	c1.17416-0.14417,2.34833-0.35028,3.50188-0.59741c0.63857-0.1441,1.29776-0.30896,1.95682-0.47375
	C232.06841,746.67096,232.06841,746.62988,232.04779,746.58862z M242.32672,742.05676c0,0-0.02061-0.02057-0.04123-0.06171
	c-0.14421-0.16479-0.28842-0.32965-0.45312-0.45325l-0.02061-0.02063c-0.04124-0.04108-0.06186-0.04108-0.06186-0.04108
	c-0.59734-0.43262-1.31825-0.53564-1.87447-0.49438c-0.20595,0.02051-0.74155,0.20593-0.76216,0.20593
	c-0.06186,0.04126-0.10297,0.06177-0.16483,0.08234c-1.00934,0.55627-1.87447-0.94745-0.88574-1.52429
	c1.68913-1.1123,4.05809-0.94745,5.5824,0.39142c2.28647,1.50366,0.4325,4.32587-1.05057,2.24536
	C242.51204,742.28333,242.40907,742.18036,242.32672,742.05676z M198.05925,738.28723
	c-0.82402-0.45325-0.47386-1.79224,0.47374-1.77161c1.17416,0.32965,3.06924,0.08246,4.01685,0.94763
	c-0.02061-0.04126-0.06186-0.0824-0.08235-0.1236c1.07108,0.28839,0.84451,1.60663-0.22668,1.64789
	c0.04124-0.02063,0.06186-0.06171,0.10297-0.08234C201.21085,739.5849,199.17155,738.65802,198.05925,738.28723z
	 M202.19969,719.1712c0.86513-2.53363,2.49242,0.90637,3.27519,1.75085c1.17416,1.31842,2.69847,2.26599,4.53183,2.1424
	c1.40071-0.24719,5.68536-1.60675,4.30527,1.25653C210.04794,727.61682,202.7764,724.56818,202.19969,719.1712z
	 M203.39221,755.90527c-1.00946-0.98889-1.89522-2.08057-2.61613-3.23413c3.62547-0.32965,7.76591-1.66852,10.71156,1.0506
	c1.40073,1.29773,2.32771,3.04865,2.80145,4.88196c0.26781,0.96814,0.412,2.01868,0.08235,3.00745
	c-0.04111,0.14417-0.10297,0.26776-0.1647,0.39136c-0.49448-2.61603-2.4308-5.10852-4.71727-5.91193
	c-0.28842-0.02063-0.49437,0.35028-0.32953,0.57684c1.35948,1.97742,3.48125,4.51117,2.92503,7.02423
	c-0.22656-0.3089-0.49435-0.55609-0.74153-0.84454v-0.06183c-0.18546-2.22461-1.79211-3.87262-3.56374-5.06732
	c-0.24718-0.16479-0.8239-0.51495-0.94748-0.0412c0.39139,0.65918,0.96809,1.4007,1.40073,2.12164
	C206.60567,758.52124,204.87529,757.36768,203.39221,755.90527z"/>
</svg>
